<svg id="Capa_1" enable-background="new 0 0 512 512" height="512" viewBox="0 0 512 512" width="512" xmlns="http://www.w3.org/2000/svg"><path d="m150.141 504.5h-21.273c-5.585 0-10.113-4.528-10.113-10.113v-27.886h41.498v27.886c.001 5.585-4.527 10.113-10.112 10.113z" fill="#394949"/><path d="m383.131 504.5h-21.273c-5.585 0-10.113-4.528-10.113-10.113v-27.886h41.498v27.886c.001 5.585-4.527 10.113-10.112 10.113z" fill="#394949"/><path d="m405.983 473.225h-299.966c-11.351 0-20.553-9.202-20.553-20.553v-424.619c0-11.351 9.202-20.553 20.553-20.553h299.966c11.351 0 20.553 9.202 20.553 20.553v424.619c-.001 11.351-9.202 20.553-20.553 20.553z" fill="#e8f3ff"/><path d="m405.983 7.5h-39.66c11.351 0 20.553 9.202 20.553 20.553v424.619c0 11.351-9.202 20.553-20.553 20.553h39.66c11.351 0 20.553-9.202 20.553-20.553v-424.619c-.001-11.352-9.202-20.553-20.553-20.553z" fill="#d8eafb"/><path d="m405.983 7.5h-299.966c-11.351 0-20.553 9.202-20.553 20.553v151.654h341.071v-151.654c0-11.351-9.201-20.553-20.552-20.553z" fill="#d8eafb"/><path d="m386.875 28.053v151.654h39.66v-151.654c0-11.351-9.202-20.553-20.553-20.553h-39.66c11.351 0 20.553 9.201 20.553 20.553z" fill="#c1e2ff"/><path d="m133.254 142.327c-7.59 0-13.743-6.153-13.743-13.743v-69.962c0-7.59 6.153-13.743 13.743-13.743 7.59 0 13.743 6.153 13.743 13.743v69.962c-.001 7.59-6.154 13.743-13.743 13.743z" fill="#688b96"/><path d="m133.254 309.769c-7.59 0-13.743-6.153-13.743-13.743v-69.962c0-7.59 6.153-13.743 13.743-13.743 7.59 0 13.743 6.153 13.743 13.743v69.962c-.001 7.59-6.154 13.743-13.743 13.743z" fill="#688b96"/><path d="m426.536 83.572c4.142 0 7.5-3.358 7.5-7.5v-48.02c-.001-15.468-12.585-28.052-28.053-28.052h-299.966c-15.468 0-28.052 12.584-28.052 28.053v424.619c0 15.468 12.584 28.053 28.053 28.053h5.239v13.663c0 9.712 7.901 17.613 17.613 17.613h21.273c9.712 0 17.613-7.901 17.613-17.613v-13.663h176.493v13.663c0 9.712 7.901 17.613 17.613 17.613h21.273c9.712 0 17.613-7.901 17.613-17.613v-13.663h5.239c15.468 0 28.053-12.584 28.053-28.053v-341.538c0-4.142-3.357-7.5-7.5-7.5-4.142 0-7.5 3.358-7.5 7.5v61.073h-213.491c-4.142 0-7.5 3.358-7.5 7.5s3.358 7.5 7.5 7.5h213.487v265.466c0 7.197-5.855 13.053-13.053 13.053h-299.966c-7.197 0-13.053-5.856-13.053-13.053v-265.467h77.524c4.142 0 7.5-3.358 7.5-7.5s-3.358-7.5-7.5-7.5h-77.524v-144.153c0-7.197 5.856-13.053 13.053-13.053h299.966c7.198 0 13.053 5.856 13.053 13.053v48.02c0 4.141 3.357 7.499 7.5 7.499zm-273.782 410.815c0 1.441-1.172 2.613-2.613 2.613h-21.273c-1.441 0-2.613-1.172-2.613-2.613v-13.663h26.499zm232.99 0c0 1.441-1.172 2.613-2.613 2.613h-21.273c-1.441 0-2.613-1.172-2.613-2.613v-13.663h26.499z"/><path d="m112.011 58.622v69.962c0 11.713 9.529 21.242 21.242 21.242s21.242-9.529 21.242-21.242v-69.962c0-11.713-9.529-21.242-21.242-21.242s-21.242 9.529-21.242 21.242zm27.485 0v69.962c0 3.442-2.801 6.242-6.243 6.242s-6.243-2.8-6.243-6.242v-69.962c0-3.442 2.801-6.243 6.243-6.243s6.243 2.801 6.243 6.243z"/><path d="m112.011 226.064v69.962c0 11.713 9.529 21.242 21.242 21.242s21.242-9.529 21.242-21.242v-69.962c0-11.713-9.529-21.242-21.242-21.242s-21.242 9.529-21.242 21.242zm27.485 0v69.962c0 3.442-2.801 6.243-6.243 6.243s-6.243-2.801-6.243-6.243v-69.962c0-3.442 2.801-6.243 6.243-6.243s6.243 2.801 6.243 6.243z"/></svg>